<svg version="1.1" xmlns="http://www.w3.org/2000/svg" xmlns:xlink="http://www.w3.org/1999/xlink" width="198" height="56" viewBox="0 0 198 56">
<g id="SpotiDown-logo-w">
<g id="SpotiDown-logo-w">
<g id="#ffffffff">
<path id="Color-Fill-1" d="M22.305,0.760 C28.006,-0.416 34.067,0.252 39.371,2.646 C45.917,5.554 51.217,11.102 53.838,17.755 C55.638,22.123 56.020,26.936 55.546,31.601 C54.676,38.535 51.046,45.080 45.615,49.497 C40.708,53.526 34.369,55.850 27.998,55.723 C20.948,55.898 13.928,53.085 8.828,48.255 C4.411,44.142 1.412,38.549 0.451,32.602 C-0.654,26.141 0.623,19.299 4.022,13.685 C7.947,7.070 14.760,2.286 22.305,0.760 M14.532,16.488 C14.651,18.183 16.387,18.764 17.664,19.435 C24.845,23.005 33.253,23.383 41.003,21.717 C42.002,21.469 43.304,21.413 43.809,20.353 C44.423,19.296 43.651,17.717 42.378,17.724 C40.838,17.906 39.336,18.323 37.800,18.539 C31.664,19.558 25.164,18.938 19.523,16.237 C18.608,15.823 17.777,15.201 16.791,14.963 C15.742,14.756 14.935,15.631 14.532,16.488 M12.750,22.361 C11.146,23.065 10.918,25.543 12.388,26.509 C15.444,28.476 18.892,29.789 22.410,30.667 C29.363,32.298 36.762,32.315 43.640,30.324 C44.339,30.072 44.980,29.533 45.187,28.801 C45.742,27.433 44.560,25.764 43.086,25.827 C41.904,25.907 40.796,26.418 39.617,26.551 C32.120,27.783 24.143,27.115 17.233,23.824 C15.788,23.237 14.437,21.763 12.750,22.361 M24.210,40.747 C30.935,41.534 37.877,41.580 44.458,39.805 C45.321,39.560 46.345,39.347 46.826,38.497 C47.713,37.079 47.078,34.622 45.233,34.412 C43.528,34.360 41.897,34.986 40.224,35.217 C31.415,36.638 22.119,35.871 13.879,32.347 C12.350,31.777 10.855,30.233 9.119,30.958 C7.161,31.609 6.705,34.601 8.505,35.700 C13.286,38.510 18.755,39.952 24.210,40.747 z" fill="#FFFFFF" />
<path id="Color-Fill-2" d="M128.638,25.200 C127.715,25.830 126.509,26.362 125.439,25.742 C123.628,24.993 123.642,22.008 125.474,21.294 C126.537,20.671 127.719,21.238 128.638,21.843 C129.150,22.918 129.168,24.125 128.638,25.200 z" fill="#FFFFFF" />
<path id="Color-Fill-3" d="M77.808,24.899 C77.103,25.784 76.566,26.789 75.843,27.664 C74.415,27.129 73.254,25.991 71.707,25.735 C70.413,25.323 68.673,26.016 68.382,27.426 C68.119,28.371 68.873,29.229 69.687,29.585 C71.806,30.576 74.296,30.677 76.247,32.050 C78.629,33.681 78.744,37.257 77.334,39.557 C76.106,41.475 73.651,42.161 71.483,42.084 C68.564,42.140 65.544,40.929 63.706,38.619 C64.376,37.789 65.028,36.949 65.691,36.116 C65.874,36.123 66.232,36.134 66.414,36.141 C67.684,37.328 69.210,38.255 70.943,38.567 C72.090,38.647 73.426,38.371 74.100,37.348 C74.643,36.533 74.384,35.312 73.542,34.808 C71.739,33.663 69.511,33.603 67.600,32.711 C66.200,32.134 64.955,30.978 64.667,29.445 C64.369,27.794 64.411,25.914 65.453,24.511 C66.614,22.792 68.789,22.040 70.799,22.106 C73.384,21.991 76.075,22.946 77.808,24.899 z" fill="#FFFFFF" />
<path id="Color-Fill-4" d="M132.370,22.470 C134.896,22.547 137.443,22.305 139.954,22.613 C142.855,23.051 145.455,25.000 146.633,27.685 C148.216,31.189 147.700,35.675 145.030,38.514 C143.371,40.313 140.943,41.314 138.509,41.363 C136.464,41.384 134.415,41.363 132.370,41.370 C132.370,35.070 132.370,28.770 132.370,22.470 M142.417,24.864 C139.789,23.229 136.601,23.922 133.682,23.776 C133.675,29.204 133.682,34.633 133.679,40.065 C136.678,39.928 139.993,40.621 142.648,38.833 C147.444,35.816 147.296,27.734 142.417,24.864 z" fill="#FFFFFF" />
<path id="Color-Fill-5" d="M118.503,27.020 C119.689,27.020 120.871,27.020 122.057,27.020 C122.057,28.070 122.057,29.120 122.057,30.170 C120.871,30.170 119.689,30.170 118.503,30.170 C118.552,32.610 118.401,35.063 118.577,37.499 C118.984,39.102 120.875,38.423 122.008,38.175 C122.011,39.249 122.008,40.324 122.011,41.398 C120.390,42.193 118.454,42.333 116.749,41.748 C115.458,41.255 114.792,39.858 114.767,38.545 C114.697,35.756 114.760,32.963 114.739,30.170 C114.181,30.170 113.631,30.170 113.077,30.170 C113.077,29.120 113.077,28.070 113.077,27.020 C113.631,27.020 114.181,27.020 114.739,27.020 C114.736,25.735 114.739,24.454 114.736,23.174 C115.992,23.170 117.247,23.170 118.503,23.170 C118.503,24.454 118.503,25.735 118.503,27.020 z" fill="#FFFFFF" />
<path id="Color-Fill-6" d="M84.504,28.420 C85.564,27.268 87.072,26.502 88.668,26.656 C91.647,26.435 94.253,28.788 94.937,31.577 C95.600,34.363 95.414,37.604 93.541,39.904 C91.429,42.578 86.900,42.938 84.512,40.446 C84.550,42.270 84.476,44.096 84.568,45.920 C83.298,45.920 82.028,45.920 80.758,45.917 C80.758,39.620 80.758,33.320 80.758,27.023 C82.014,27.020 83.270,27.020 84.529,27.020 C84.522,27.485 84.515,27.951 84.504,28.420 M88.188,38.899 C90.685,38.458 91.857,35.546 91.334,33.278 C91.068,31.559 89.637,29.809 87.788,29.851 C85.315,30.300 84.062,33.169 84.599,35.445 C84.887,37.180 86.336,38.892 88.188,38.899 z" fill="#FFFFFF" />
<path id="Color-Fill-7" d="M102.198,26.894 C104.563,26.344 107.278,26.628 109.169,28.262 C112.417,30.979 112.712,36.361 110.018,39.560 C107.176,43.131 100.851,42.945 98.294,39.130 C95.344,35.077 97.105,28.214 102.198,26.894 M104.440,38.920 C107.046,38.651 108.516,35.665 107.902,33.292 C107.548,31.447 105.878,29.649 103.893,29.866 C101.735,30.338 100.448,32.655 100.679,34.755 C100.795,36.764 102.321,38.801 104.440,38.920 z" fill="#FFFFFF" />
<path id="Color-Fill-8" d="M128.536,41.716 C127.298,41.720 126.056,41.720 124.818,41.720 C124.818,36.820 124.818,31.920 124.818,27.020 C126.056,27.020 127.298,27.020 128.536,27.024 C128.536,31.920 128.536,36.820 128.536,41.716 z" fill="#FFFFFF" />
<path id="Color-Fill-9" d="M154.765,27.584 C156.845,26.863 159.269,27.388 160.893,28.861 C163.773,31.444 164.047,36.278 161.633,39.256 C160.199,41.111 157.680,42.084 155.375,41.548 C152.274,40.946 150.124,37.804 150.159,34.738 C149.970,31.707 151.815,28.550 154.765,27.584 M160.097,39.109 C161.942,37.345 162.373,34.436 161.518,32.098 C160.718,29.670 158.017,27.951 155.477,28.648 C150.966,29.834 150.127,36.526 153.597,39.302 C155.396,40.887 158.392,40.796 160.097,39.109 z" fill="#FFFFFF" />
<path id="Color-Fill-10" d="M197.786,34.034 C197.779,36.480 197.783,38.924 197.783,41.370 C197.478,41.370 196.871,41.370 196.565,41.370 C196.562,38.794 196.569,36.221 196.565,33.646 C196.548,32.186 196.320,30.587 195.239,29.508 C194.142,28.445 192.437,28.283 191.026,28.717 C189.265,29.309 188.101,31.122 188.058,32.942 C188.044,35.749 188.058,38.559 188.055,41.370 C187.743,41.370 187.125,41.370 186.813,41.370 C186.813,36.789 186.813,32.207 186.817,27.629 C187.125,27.629 187.746,27.629 188.055,27.629 C188.055,28.448 188.055,29.270 188.016,30.089 C189.360,27.261 193.342,26.348 195.797,28.276 C197.520,29.627 197.856,31.979 197.786,34.034 z" fill="#FFFFFF" />
<path id="Color-Fill-11" d="M170.217,39.715 C171.515,35.665 172.810,31.612 174.076,27.548 C174.329,27.552 174.837,27.555 175.090,27.559 C176.363,31.619 177.665,35.669 178.949,39.725 C180.194,35.679 181.516,31.661 182.793,27.629 C183.126,27.629 183.789,27.626 184.119,27.626 C182.562,32.238 181.018,36.859 179.433,41.465 C179.173,41.465 178.654,41.465 178.394,41.465 C177.093,37.544 175.858,33.600 174.571,29.673 C173.280,33.604 172.035,37.548 170.726,41.472 C170.459,41.468 169.930,41.461 169.667,41.458 C168.116,36.845 166.551,32.235 164.997,27.626 C165.338,27.626 166.015,27.622 166.355,27.622 C167.674,31.643 168.958,35.676 170.217,39.715 z" fill="#FFFFFF" />
</g>
</g>
</g>
</svg>
